<svg width="2161" height="2161" viewBox="0 0 2161 2161" fill="none" xmlns="http://www.w3.org/2000/svg">
<g opacity="0.9" filter="url(#filter0_b_204_2066)">
<rect width="2159.99" height="2160" rx="361.208" transform="matrix(1 0 3.70128e-06 1 0.427734 0.648438)" fill="white" fill-opacity="0.1"/>
<rect width="2159.99" height="2160" rx="361.208" transform="matrix(1 0 3.70128e-06 1 0.427734 0.648438)" fill="url(#paint0_radial_204_2066)" fill-opacity="0.8"/>
<rect x="8.23769" y="8.23766" width="2143.52" height="2143.52" rx="352.97" transform="matrix(1 0 3.70128e-06 1 0.427704 0.648438)" stroke="url(#paint1_radial_204_2066)" stroke-width="16.4753"/>
<rect x="8.23769" y="8.23766" width="2143.52" height="2143.52" rx="352.97" transform="matrix(1 0 3.70128e-06 1 0.427704 0.648438)" stroke="url(#paint2_radial_204_2066)" stroke-width="16.4753"/>
</g>
<g clip-path="url(#clip0_204_2066)">
<g clip-path="url(#clip1_204_2066)">
<g filter="url(#filter1_ii_204_2066)">
<path d="M1437.14 528.771C1416.04 462.096 1354.17 416.782 1284.23 416.782L1231.37 416.782C1154.13 416.782 1087.85 471.847 1073.71 547.788L995.161 969.358L1018.73 891.538C1039.21 823.9 1101.56 777.642 1172.23 777.642L1417.73 777.642L1558.5 826.902L1633.37 777.894C1563.43 777.894 1501.56 732.328 1480.46 665.653L1437.14 528.771Z" fill="url(#paint3_radial_204_2066)"/>
</g>
<g filter="url(#filter2_i_204_2066)">
<path d="M741.243 1651.31C762.121 1718.34 824.165 1763.99 894.368 1763.99L998.422 1763.99C1086.11 1763.99 1157.54 1693.57 1158.79 1605.89L1164.3 1218.61L1143.19 1288.88C1122.82 1356.7 1060.39 1403.13 989.587 1403.13L744.129 1403.13L617.194 1345.26L545.912 1403.13C616.115 1403.13 678.159 1448.79 699.038 1515.82L741.243 1651.31Z" fill="url(#paint4_radial_204_2066)"/>
<path d="M741.243 1651.31C762.121 1718.34 824.165 1763.99 894.368 1763.99L998.422 1763.99C1086.11 1763.99 1157.54 1693.57 1158.79 1605.89L1164.3 1218.61L1143.19 1288.88C1122.82 1356.7 1060.39 1403.13 989.587 1403.13L744.129 1403.13L617.194 1345.26L545.912 1403.13C616.115 1403.13 678.159 1448.79 699.038 1515.82L741.243 1651.31Z" fill="url(#paint5_linear_204_2066)" fill-opacity="0.7"/>
</g>
<g filter="url(#filter3_i_204_2066)">
<path d="M1273.39 416.782L712.05 416.782C551.668 416.782 455.438 623.611 391.285 830.439C315.281 1075.48 215.827 1403.2 503.553 1403.2L747.997 1403.2C819.305 1403.2 882.002 1356.29 902.05 1287.86C944.225 1143.89 1017.94 893.406 1075.86 702.655C1105.34 605.57 1129.9 522.192 1167.59 470.269C1188.71 441.159 1223.93 416.782 1273.39 416.782Z" fill="url(#paint6_linear_204_2066)"/>
<path d="M1273.39 416.782L712.05 416.782C551.668 416.782 455.438 623.611 391.285 830.439C315.281 1075.48 215.827 1403.2 503.553 1403.2L747.997 1403.2C819.305 1403.2 882.002 1356.29 902.05 1287.86C944.225 1143.89 1017.94 893.406 1075.86 702.655C1105.34 605.57 1129.9 522.192 1167.59 470.269C1188.71 441.159 1223.93 416.782 1273.39 416.782Z" fill="url(#paint7_linear_204_2066)"/>
</g>
<g filter="url(#filter4_i_204_2066)">
<path d="M888.354 1764L1449.69 1764C1610.07 1764 1706.3 1557.2 1770.46 1350.4C1846.46 1105.4 1945.91 777.727 1658.19 777.727L1413.74 777.727C1342.43 777.727 1279.74 824.631 1259.69 893.06C1217.51 1037 1143.8 1287.45 1085.88 1478.16C1056.4 1575.23 1031.84 1658.6 994.156 1710.52C973.028 1739.62 937.814 1764 888.354 1764Z" fill="url(#paint8_radial_204_2066)"/>
<path d="M888.354 1764L1449.69 1764C1610.07 1764 1706.3 1557.2 1770.46 1350.4C1846.46 1105.4 1945.91 777.727 1658.19 777.727L1413.74 777.727C1342.43 777.727 1279.74 824.631 1259.69 893.06C1217.51 1037 1143.8 1287.45 1085.88 1478.16C1056.4 1575.23 1031.84 1658.6 994.156 1710.52C973.028 1739.62 937.814 1764 888.354 1764Z" fill="url(#paint9_linear_204_2066)"/>
</g>
</g>
</g>
<defs>
<filter id="filter0_b_204_2066" x="-1440.54" y="-1440.32" width="5041.94" height="5041.94" filterUnits="userSpaceOnUse" color-interpolation-filters="sRGB">
<feFlood flood-opacity="0" result="BackgroundImageFix"/>
<feGaussianBlur in="BackgroundImageFix" stdDeviation="720.485"/>
<feComposite in2="SourceAlpha" operator="in" result="effect1_backgroundBlur_204_2066"/>
<feBlend mode="normal" in="SourceGraphic" in2="effect1_backgroundBlur_204_2066" result="shape"/>
</filter>
<filter id="filter1_ii_204_2066" x="986.14" y="416.782" width="767.515" height="612.72" filterUnits="userSpaceOnUse" color-interpolation-filters="sRGB">
<feFlood flood-opacity="0" result="BackgroundImageFix"/>
<feBlend mode="normal" in="SourceGraphic" in2="BackgroundImageFix" result="shape"/>
<feColorMatrix in="SourceAlpha" type="matrix" values="0 0 0 0 0 0 0 0 0 0 0 0 0 0 0 0 0 0 127 0" result="hardAlpha"/>
<feOffset dx="150.359" dy="60.1434"/>
<feGaussianBlur stdDeviation="60.1434"/>
<feComposite in2="hardAlpha" operator="arithmetic" k2="-1" k3="1"/>
<feColorMatrix type="matrix" values="0 0 0 0 0 0 0 0 0 0 0 0 0 0 0 0 0 0 0.15 0"/>
<feBlend mode="multiply" in2="shape" result="effect1_innerShadow_204_2066"/>
<feColorMatrix in="SourceAlpha" type="matrix" values="0 0 0 0 0 0 0 0 0 0 0 0 0 0 0 0 0 0 127 0" result="hardAlpha"/>
<feOffset dx="-9.02151" dy="9.02151"/>
<feGaussianBlur stdDeviation="6.01434"/>
<feComposite in2="hardAlpha" operator="arithmetic" k2="-1" k3="1"/>
<feColorMatrix type="matrix" values="0 0 0 0 1 0 0 0 0 1 0 0 0 0 1 0 0 0 0.55 0"/>
<feBlend mode="soft-light" in2="effect1_innerShadow_204_2066" result="effect2_innerShadow_204_2066"/>
</filter>
<filter id="filter2_i_204_2066" x="545.912" y="1209.59" width="627.407" height="554.406" filterUnits="userSpaceOnUse" color-interpolation-filters="sRGB">
<feFlood flood-opacity="0" result="BackgroundImageFix"/>
<feBlend mode="normal" in="SourceGraphic" in2="BackgroundImageFix" result="shape"/>
<feColorMatrix in="SourceAlpha" type="matrix" values="0 0 0 0 0 0 0 0 0 0 0 0 0 0 0 0 0 0 127 0" result="hardAlpha"/>
<feOffset dx="9.02151" dy="-9.02151"/>
<feGaussianBlur stdDeviation="6.01434"/>
<feComposite in2="hardAlpha" operator="arithmetic" k2="-1" k3="1"/>
<feColorMatrix type="matrix" values="0 0 0 0 1 0 0 0 0 1 0 0 0 0 1 0 0 0 0.4 0"/>
<feBlend mode="screen" in2="shape" result="effect1_innerShadow_204_2066"/>
</filter>
<filter id="filter3_i_204_2066" x="301.956" y="407.76" width="971.433" height="995.436" filterUnits="userSpaceOnUse" color-interpolation-filters="sRGB">
<feFlood flood-opacity="0" result="BackgroundImageFix"/>
<feBlend mode="normal" in="SourceGraphic" in2="BackgroundImageFix" result="shape"/>
<feColorMatrix in="SourceAlpha" type="matrix" values="0 0 0 0 0 0 0 0 0 0 0 0 0 0 0 0 0 0 127 0" result="hardAlpha"/>
<feOffset dx="-9.02151" dy="-9.02151"/>
<feGaussianBlur stdDeviation="6.01434"/>
<feComposite in2="hardAlpha" operator="arithmetic" k2="-1" k3="1"/>
<feColorMatrix type="matrix" values="0 0 0 0 1 0 0 0 0 1 0 0 0 0 1 0 0 0 0.45 0"/>
<feBlend mode="overlay" in2="shape" result="effect1_innerShadow_204_2066"/>
</filter>
<filter id="filter4_i_204_2066" x="888.354" y="777.727" width="971.433" height="995.29" filterUnits="userSpaceOnUse" color-interpolation-filters="sRGB">
<feFlood flood-opacity="0" result="BackgroundImageFix"/>
<feBlend mode="normal" in="SourceGraphic" in2="BackgroundImageFix" result="shape"/>
<feColorMatrix in="SourceAlpha" type="matrix" values="0 0 0 0 0 0 0 0 0 0 0 0 0 0 0 0 0 0 127 0" result="hardAlpha"/>
<feOffset dx="9.02151" dy="9.02151"/>
<feGaussianBlur stdDeviation="6.01434"/>
<feComposite in2="hardAlpha" operator="arithmetic" k2="-1" k3="1"/>
<feColorMatrix type="matrix" values="0 0 0 0 1 0 0 0 0 1 0 0 0 0 1 0 0 0 0.45 0"/>
<feBlend mode="lighten" in2="shape" result="effect1_innerShadow_204_2066"/>
</filter>
<radialGradient id="paint0_radial_204_2066" cx="0" cy="0" r="1" gradientUnits="userSpaceOnUse" gradientTransform="rotate(45.0001) scale(3054.69 2796.34)">
<stop stop-color="white"/>
<stop offset="1" stop-color="white" stop-opacity="0.05"/>
</radialGradient>
<radialGradient id="paint1_radial_204_2066" cx="0" cy="0" r="1" gradientUnits="userSpaceOnUse" gradientTransform="rotate(45.0001) scale(3054.69 1152.66)">
<stop offset="0.104014" stop-color="white"/>
<stop offset="0.639748" stop-color="white" stop-opacity="0.143801"/>
<stop offset="1" stop-color="white" stop-opacity="0.143801"/>
</radialGradient>
<radialGradient id="paint2_radial_204_2066" cx="0" cy="0" r="1" gradientUnits="userSpaceOnUse" gradientTransform="translate(2161.43 2097.84) rotate(-135.958) scale(3006.88 1165.57)">
<stop offset="0.104014" stop-color="white"/>
<stop offset="1" stop-color="white" stop-opacity="0.143801"/>
</radialGradient>
<radialGradient id="paint3_radial_204_2066" cx="0" cy="0" r="1" gradientUnits="userSpaceOnUse" gradientTransform="translate(1540.44 972.97) rotate(-128.731) scale(578.058 541.263)">
<stop offset="0.0955758" stop-color="#00AEFF"/>
<stop offset="0.773185" stop-color="#2253CE"/>
<stop offset="1" stop-color="#0736C4"/>
<stop offset="1" stop-color="#0736C4"/>
</radialGradient>
<radialGradient id="paint4_radial_204_2066" cx="0" cy="0" r="1" gradientUnits="userSpaceOnUse" gradientTransform="translate(658.101 1398.19) rotate(51.8273) scale(523.177 507.55)">
<stop stop-color="#FFB657"/>
<stop offset="0.633728" stop-color="#FF5F3D"/>
<stop offset="0.923392" stop-color="#C02B3C"/>
</radialGradient>
<linearGradient id="paint5_linear_204_2066" x1="922.009" y1="1464.79" x2="941.086" y2="1763.87" gradientUnits="userSpaceOnUse">
<stop stop-color="#FF8549" stop-opacity="0"/>
<stop offset="1" stop-color="#9B282C"/>
</linearGradient>
<linearGradient id="paint6_linear_204_2066" x1="678.453" y1="536.305" x2="754.735" y2="1440.73" gradientUnits="userSpaceOnUse">
<stop offset="0.156162" stop-color="#0D91E1"/>
<stop offset="0.487484" stop-color="#52B471"/>
<stop offset="0.652394" stop-color="#98BD42"/>
<stop offset="0.937361" stop-color="#FFC800"/>
</linearGradient>
<linearGradient id="paint7_linear_204_2066" x1="748.448" y1="416.782" x2="790.092" y2="1403.28" gradientUnits="userSpaceOnUse">
<stop stop-color="#72D9FF"/>
<stop offset="0.0416667" stop-color="#3DCBFF"/>
<stop offset="0.246674" stop-color="#0588F7" stop-opacity="0"/>
</linearGradient>
<radialGradient id="paint8_radial_204_2066" cx="0" cy="0" r="1" gradientUnits="userSpaceOnUse" gradientTransform="translate(1687.02 681.165) rotate(109.722) scale(1314.12 1604.98)">
<stop offset="0.0661714" stop-color="#8C48FF"/>
<stop offset="0.5" stop-color="#F2598A"/>
<stop offset="0.787028" stop-color="#FFAF52"/>
<stop offset="0.895833" stop-color="#FFAF52"/>
</radialGradient>
<linearGradient id="paint9_linear_204_2066" x1="1731.37" y1="717.513" x2="1730.83" y2="986.138" gradientUnits="userSpaceOnUse">
<stop offset="0.0581535" stop-color="#F8ADFA"/>
<stop offset="0.708063" stop-color="#A86EDD" stop-opacity="0"/>
</linearGradient>
<clipPath id="clip0_204_2066">
<rect width="1538.62" height="1538.6" fill="white" transform="translate(311.095 320.564)"/>
</clipPath>
<clipPath id="clip1_204_2066">
<rect width="1538.62" height="1538.6" fill="white" transform="translate(311.095 320.564)"/>
</clipPath>
</defs>
</svg>
